<svg  xmlns="http://www.w3.org/2000/svg" viewBox="0 0 1024 1024"><path  d="M512 149.333c200.533 0 362.667 162.134 362.667 362.667S712.533 874.667 512 874.667 149.333 712.533 149.333 512 311.467 149.333 512 149.333zm232.533 174.934L324.267 744.533c51.2 40.534 117.333 66.134 187.733 66.134 164.267 0 298.667-134.4 298.667-298.667 0-70.4-25.6-136.533-66.134-187.733zM512 213.333c-164.267 0-298.667 134.4-298.667 298.667 0 70.4 25.6 136.533 66.134 187.733l420.266-420.266C648.533 238.933 582.4 213.333 512 213.333z"/></svg>