<svg  xmlns="http://www.w3.org/2000/svg" viewBox="0 0 1024 1024"><defs/><path d="M704 170.667H320V224a21.333 21.333 0 0 1-42.667 0v-53.333h-42.666A106.667 106.667 0 0 0 128 277.333v85.334h768v-85.334a106.667 106.667 0 0 0-106.667-106.666h-42.666V224A21.333 21.333 0 0 1 704 224v-53.333zM746.667 128h42.666a149.333 149.333 0 0 1 149.334 149.333v512a149.333 149.333 0 0 1-149.334 149.334H234.667A149.333 149.333 0 0 1 85.333 789.333v-512A149.333 149.333 0 0 1 234.667 128h42.666V96A21.333 21.333 0 0 1 320 96v32h384V96a21.333 21.333 0 0 1 42.667 0v32zM896 405.333H128v384A106.667 106.667 0 0 0 234.667 896h554.666A106.667 106.667 0 0 0 896 789.333v-384zM327.21 642.304a21.333 21.333 0 0 1 28.246-32l98.048 86.55a21.333 21.333 0 0 0 29.867-1.643l179.882-197.568a21.333 21.333 0 0 1 31.552 28.714L514.944 723.925a64 64 0 0 1-89.664 4.907l-98.07-86.528z"/></svg>