<svg  xmlns="http://www.w3.org/2000/svg" viewBox="0 0 1024 1024"><path  d="M490.261 173.44a49.067 49.067 0 0 1 64.064 19.179l1.664 3.093 87.851 177.813 196.352 28.502a49.067 49.067 0 0 1 29.717 81.066l-2.538 2.646L725.333 624l33.536 195.35a49.067 49.067 0 0 1-68.01 53.269l-3.158-1.515L512 778.859l-175.701 92.266A49.067 49.067 0 0 1 264.66 822.7l.47-3.328 33.536-195.35L156.629 485.76a49.067 49.067 0 0 1 23.894-83.115l3.285-.597 196.352-28.501 87.85-177.814a49.067 49.067 0 0 1 22.251-22.272z"/></svg>