<svg class="icon" viewBox="0 0 1024 1024" xmlns="http://www.w3.org/2000/svg" ><path d="M866.462 39.385h-512c-43.324 0-78.77 35.446-78.77 78.769v39.384h472.616c43.323 0 78.769 35.447 78.769 78.77v551.384h39.385c43.323 0 78.769-35.446 78.769-78.769v-590.77c0-43.322-35.446-78.768-78.77-78.768zM748.308 315.077c0-43.323-35.446-78.77-78.77-78.77h-512c-43.323 0-78.769 35.447-78.769 78.77v590.77c0 43.322 35.446 78.768 78.77 78.768h512c43.323 0 78.769-35.446 78.769-78.769v-590.77zM393.846 452.923c0 11.815-7.877 19.692-19.692 19.692H216.615c-11.815 0-19.692-7.877-19.692-19.692v-39.385c0-11.815 7.877-19.692 19.692-19.692h157.539c11.815 0 19.692 7.877 19.692 19.692v39.385zM551.385 768c0 11.815-7.877 19.692-19.693 19.692H216.615c-11.815 0-19.692-7.877-19.692-19.692v-39.385c0-11.815 7.877-19.692 19.692-19.692h315.077c11.816 0 19.693 7.877 19.693 19.692V768zm78.769-157.538c0 11.815-7.877 19.692-19.692 19.692H216.615c-11.815 0-19.692-7.877-19.692-19.692v-39.385c0-11.815 7.877-19.692 19.692-19.692h393.847c11.815 0 19.692 7.877 19.692 19.692v39.385z"/></svg>