<svg  xmlns="http://www.w3.org/2000/svg" viewBox="0 0 1024 1024"><path  d="M512 149.333c200.299 0 362.667 162.368 362.667 362.667S712.299 874.667 512 874.667 149.333 712.299 149.333 512 311.701 149.333 512 149.333zm0 64c-164.95 0-298.667 133.718-298.667 298.667S347.051 810.667 512 810.667 810.667 676.949 810.667 512 676.949 213.333 512 213.333zm86.997 137.451l116.118 116.16-45.27 45.248L608 450.325v242.71h-64V373.547l.81-5.76c1.153-7.211 2.305-8.747 8.64-17.024l7.169-3.926c15.914-8.469 18.282-7.168 38.378 3.947zm-118.549-9.45V660.82l-.832 5.76c-1.13 7.211-2.283 8.726-8.619 17.024l-7.168 3.904c-15.936 8.491-18.282 7.19-38.4-3.925l-116.096-116.16 45.27-45.248 61.845 61.867v-242.71h64z"/></svg>