<svg  xmlns="http://www.w3.org/2000/svg" viewBox="0 0 1024 1024"><path  d="M512 149.333c200.299 0 362.667 162.368 362.667 362.667S712.299 874.667 512 874.667 149.333 712.299 149.333 512 311.701 149.333 512 149.333zm86.997 201.451c-20.096-11.115-22.464-12.416-38.4-3.947l-7.146 3.926c-6.336 8.298-7.488 9.813-8.64 17.002l-.811 5.782v319.488h64v-242.71l61.845 61.867 45.27-45.227zm-118.549-9.45h-64v242.709l-61.867-61.867-45.248 45.227 116.118 116.181c20.096 11.093 22.442 12.416 38.378 3.925l7.168-3.904c6.336-8.298 7.488-9.813 8.619-17.002l.832-5.782V341.333z"/></svg>