<svg  xmlns="http://www.w3.org/2000/svg" viewBox="0 0 1024 1024"><path  d="M545.024 176v66.645l4.544.683c28.16 4.203 50.987 12.779 68.736 25.813 15.659 11.52 30.72 28.523 45.184 50.902l3.2 4.906-62.293 32.47-2.646-3.968c-21.888-32.854-49.984-49.323-84.032-49.323-22.89 0-42.048 6.443-57.173 19.157-15.467 13.014-23.275 29.376-23.275 48.811 0 17.707 6.422 32.683 19.03 44.459 10.24 9.557 29.12 20.416 57.344 32.938l21.546 9.302c25.878 11.264 47.254 21.738 64.342 31.53 18.944 10.923 33.13 21.355 42.453 31.211 26.923 27.093 40.277 59.52 40.277 97.792 0 37.675-12.117 70.848-36.352 99.648-24 28.693-56.192 48-96.64 58.07l-4.053 1.002V848h-53.803v-68.33l-4.522-.705c-47.019-7.21-82.859-22.229-107.307-45.056-22.613-21.12-39.787-53.034-51.541-95.637l-1.536-5.547 70.826-13.824 1.515 4.374c10.816 31.146 23.808 53.76 38.848 67.797 17.92 15.317 41.301 22.933 70.485 22.933 28.352 0 52.139-8.597 71.296-25.728 19.051-17.13 28.672-39.338 28.672-66.218 0-24.171-8.106-43.776-24.064-58.454-7.893-6.954-19.242-14.57-34.773-23.36a541.333 541.333 0 0 0-48.896-23.893l-15.787-6.784c-42.709-18.475-71.168-35.413-84.672-50.475-23.082-24.192-34.517-52.8-34.517-86.293 0-15.808 2.688-30.528 8.107-44.224a123.157 123.157 0 0 1 23.488-36.992c10.176-10.923 22.89-20.63 37.994-28.97 14.998-8.107 32.384-14.571 52.096-19.393l4.054-1.002V176h53.845z"/></svg>