<svg  xmlns="http://www.w3.org/2000/svg" viewBox="0 0 1024 1024"><path  d="M562.368 797.397l-1.216.15 5.333-.64-2.773.32 2.965-.363-.213.043.277-.043 1.131-.192.256-.043 1.472-.17 3.115-.47-.64.107 1.344-.235 3.541-.576-1.472.256.79-.106 1.77-.32.405-.086 1.067-.192.64-.085 2.71-.512 1.706-.363-1.344.299 3.157-.64 2.88-.576 1.152-.277-.874.213 1.749-.405.17-.064.342-.064.683-.107.704-.192 2.368-.533 2.901-.704-2.965.704 3.413-.811 1.152-.299-1.11.278 1.131-.278 1.494-.362 1.557-.427 1.387-.384h.149l.64-.192.96-.299 1.621-.426 1.216-.363.384-.107 1.856-.512.491-.192 1.856-.554.555-.128 1.28-.427 1.621-.49.213-.065 2.987-.96 2.944-1.002 2.773-.96.598-.214 2.645-.96 1.472-.576-.704.278 1.152-.427 1.877-.704 1.408-.533.875-.342 1.685-.64 1.472-.618 1.792-.747.214-.085 1.578-.662.406-.17 3.05-1.302 1.323-.576 1.963-.874.96-.427.362-.17.043-.022 2.09-.96.214-.107 1.92-.874 2.859-1.408.426-.214 2.454-1.194 1.386-.704 2.326-1.216.512-.235 2.389-1.28.853-.448 2.048-1.13 1.195-.64 1.13-.62 2.817-1.6-2.816 1.58 2.922-1.643 2.006-1.195-2.048 1.195 2.368-1.366.81-.448c1.707-1.002 3.371-2.026 5.035-3.05l-1.984 1.173 4.267-2.603 2.816-1.792 4.16-2.752 1.216-.81 2.133-1.472 1.493-1.046 1.067-.725.405-.299.918-.661 1.173-.81 2.496-1.814.427-.341.149-.107 1.77-1.323.278-.213.17-.107 2.433-1.856.277-.234 1.387-1.088 3.328-2.624 4.906-4.054 2.39-1.984 1.344-1.216.469-.405.384-.341.15-.086a369.59 369.59 0 0 0 8.597-7.829l3.925-3.797 3.84-3.862 1.792-1.856 1.792-1.856 2.112-2.24v-.021l2.155-2.347 1.152-1.28.682-.746.32-.363.448-.533 1.579-1.792 1.685-1.942.256-.298 1.536-1.835.384-.427.448-.533 1.899-2.347-.555.704.704-.874 1.408-1.707 2.07-2.603.021-.085.768-.981.704-.854-1.493 1.92c2.474-3.157 4.906-6.4 7.253-9.642l1.195-1.707.661-.896 1.835-2.645-.939 1.301 4.608-6.741a298.24 298.24 0 0 0 9.387-15.254l.981-1.813-.021.064a70.4 70.4 0 0 0 1.066-1.856l-.554.896 1.664-2.901a297.216 297.216 0 0 0 15.189-32.342l1.77-4.522a296.256 296.256 0 0 0 9.174-28.523l1.408-5.419a296.363 296.363 0 0 0 8.533-61.653l.15-10.09-.064-6.657a297.557 297.557 0 0 0-13.206-81.557h66.454c7.082 28.245 10.816 57.792 10.816 88.213 0 197.632-158.358 358.272-355.115 361.942l-6.87.064-6.89-.064a360.79 360.79 0 0 1-246.784-103.68v82.73h-64v-208h186.005v64H273.067v.811h46.464c47.914 59.435 116.714 92.63 208.469 100.181l4.096-.042 4.181-.086 4.928-.213 1.174-.064-1.067.043 1.11-.064 1.215-.043 1.387-.085 1.11-.064-.833.042 1.387-.064c4.843-.32 9.664-.768 14.443-1.322l.704-.086.49-.085.427-.043-.299.043.363-.021-.47.042zm-19.221 1.643l-.704.043-.043.021.747-.064zm2.176-.107l-.278.022-1.898.085 2.176-.107zm3.925-.277l-2.56.213-.533.022 3.093-.214zm12.864-1.216l-.256.021-.235.022.491-.043zm.363-.064h-.128l-.235.064.256-.043h.107zm4.373-.533l-.107.021h-.064l.171-.021zm1.11-.171h-.086l-.512.085.597-.085zm3.05-.427l-2.88.384-.17.043 3.05-.427zm2.667-.405l-.256.021-.704.128.96-.149zm6.144-1.024l-.299.021-.661.128-.406.064-1.344.256 1.75-.32.96-.149zm27.498-6.336l-1.045.277-.917.278 1.962-.555zm3.798-1.067l-1.622.448-.341.086 1.963-.534zm5.333-1.664l-.917.299-1.046.341 1.963-.64zm15.53-5.333l-.746.256-.448.15 1.195-.406zm1.963-.79l-.832.342-.874.32 1.706-.64zm24.576-10.773l-.768.384-.106.064.874-.426zm13.291-6.954l-.896.469-.832.47 1.728-.94zM275.627 340.992l-.406.64.107-.15.299-.49zm43.754-53.483l-2.752 2.71 2.774-2.71zm90.923-60.373l-.81.341.277-.149.533-.213zm87.85-22.272l-1.386.15-.512.02 1.899-.17zm.555-.064l-.554.064.49-.064h.064zm.32-.021l-.384.021-.106.043-.384.021-1.984.192h.085-.213.128l-.192.021-1.067.128-4.608.512 3.115-.362-6.891.853-6.827 1.003-3.136.512 1.259-.214-2.816.491-1.045.17-1.75.32-5.29 1.046-6.251 1.344-1.6.363-4.821 1.152a295.787 295.787 0 0 0-7.979 2.133l.832-.256-1.792.512-2.56.747-.15.042-3.05.918-.555.149-.682.213-2.987.939-5.013 1.685a295.723 295.723 0 0 0-17.366 6.55l-1.216.469.811-.32-.832.32-.363.17-1.578.662-.704.32.426-.17-1.984.853h-.021l-1.408.64-2.304 1.024-.15.064-.32.149-2.133.981-3.05 1.451-.086.021-2.837 1.387-.896.448-1.579.79-.128.063-1.109.555-1.941 1.024-1.259.64-1.067.576-.853.448-.512.256-.704.384-.15.085-.682.384-.15.086a297.493 297.493 0 0 0-13.375 7.744l-.448.277-.043.021-1.877 1.174-2.347 1.493-2.816 1.835-.49.32-.193.106-2.517 1.707-.15.085-2.09 1.43-1.557 1.066 1.066-.725-4.522 3.2-.022.021-.362.256-1.963 1.43-2.325 1.728-.256.192-.555.426-1.685 1.259 1.685-1.259-4.693 3.627a299.435 299.435 0 0 0-6.443 5.205l-1.13.96-2.134 1.814-.683.554-6.186 5.504a299.84 299.84 0 0 0-18.88 18.816l-5.824 6.528-2.902 3.414-.426.49-1.92 2.347-1.942 2.368-1.088 1.365-1.173 1.494-1.813 2.346-1.344 1.771-.15.213-.277.32-1.216 1.664-.341.448-2.006 2.774-.981 1.344-.832 1.152.064-.064-.533.789-1.344 1.92-.896 1.28-.832 1.237-.086.15-.234.32-1.238 1.856-.298.49-1.366 2.091-.853 1.323-.15.234-3.647 5.91-4.438 7.594-4.224 7.723c-.725 1.387-1.45 2.773-2.154 4.203l-.384.704-.043.128-1.11 2.197 1.11-2.219-2.71 5.547a296.533 296.533 0 0 0-2.986 6.485l-.427.982-.192.384-.256.597a296.085 296.085 0 0 0-20.416 67.413l-.981 5.888a297.963 297.963 0 0 0-3.563 46.272c0 30.55 4.608 60.054 13.142 87.808h-66.411a362.795 362.795 0 0 1-10.73-87.808c0-24.32 2.389-48.064 6.954-71.018 33.003-165.931 179.413-290.987 355.05-290.987 93.505 0 178.753 35.456 242.987 93.675V128.512h64v208H647.765v-64h56.427c-43.456-38.4-99.755-61.013-169.877-68.181l-8.811-.811-5.056.064-5.184.15-2.624.106h-.384l-.47.043h.171l.299-.043h.576-.555l-.192.021h-.128l-.384.022h-.085l-.128.021h-.128l-.235.021-.981.064.512-.042h.47l.277-.043h.512l-1.259.043-1.195.085-3.157.17 3.84-.213-.619.022-3.285.213-.981.043-2.134.192-1.408.085-1.237.107h.15l1.087-.107.64-.021-1.728.106-.362.064-1.11.086zm6.827-.534l-2.816.214 2.09-.192.726-.022zm5.184-.32l-1.643.086 1.323-.086h.32zm.277 0l.128-.042h.64l.107-.043h.64-.64l-.747.043-.405.042h.277zm51.904 593.344l-.021.022h-.085.106l.406-.064-.363.064h-.043zm29.142-5.034l-.555.128-.17.021.725-.15z"/></svg>