<svg  xmlns="http://www.w3.org/2000/svg" viewBox="0 0 1024 1024"><path  d="M512 149.333l6.89.064h.875l6.187.214c39.168 1.472 76.715 9.173 111.723 22.101l-4.118-1.493c2.56.896 5.12 1.834 7.659 2.794l-3.541-1.301a367.701 367.701 0 0 1 20.16 8.15l-1.067-.47a295.749 295.749 0 0 1 7.488 3.35l-6.4-2.902a488.108 488.108 0 0 1 8.277 3.776l-1.877-.853a284.18 284.18 0 0 1 8.917 4.266l-7.04-3.413a361.813 361.813 0 0 1 32.918 17.6v.021a363.008 363.008 0 0 1 29.61 19.904l-4.885-3.584a313.735 313.735 0 0 1 6.037 4.438l-1.152-.854c2.155 1.6 4.31 3.243 6.443 4.907l-5.29-4.053c2.389 1.813 4.778 3.626 7.125 5.504l-1.835-1.451a411.909 411.909 0 0 1 8.213 6.613l-6.378-5.162a364.8 364.8 0 0 1 21.696 18.602l-1.323-1.216a468.326 468.326 0 0 1 5.845 5.483l-4.522-4.267a364.821 364.821 0 0 1 19.605 19.627l5.248 5.803.299.341a364.165 364.165 0 0 1 38.058 51.563l.064.085 4.31 7.275a361.835 361.835 0 0 1 20.352 41.002l-2.432-5.653a357.355 357.355 0 0 1 10.069 25.472l-1.11-3.115a319.612 319.612 0 0 1 2.646 7.595l1.259 3.755 2.517 8.106a360.661 360.661 0 0 1 10.773 47.574c1.003 6.4 1.835 12.8 2.496 19.285l-.32-3.008c.32 3.03.64 6.059.875 9.11l-.555-6.102a367.68 367.68 0 0 1 .576 68.267l.214-2.539-.64 7.275.426-4.736a362.624 362.624 0 0 1-3.456 27.882 359.936 359.936 0 0 1-16.746 64.384 364.3 364.3 0 0 1-6.507 16.662l1.024-2.496a286.224 286.224 0 0 1-3.541 8.32v.021a360.661 360.661 0 0 1-17.558 34.73l.47-.81a363.904 363.904 0 0 1-43.264 60.373l-.278.299-4.01 4.437-6.187 6.614a364.843 364.843 0 0 1-14.101 13.866l5.61-5.333a364.8 364.8 0 0 1-21.397 19.243l1.173-1.003a453.414 453.414 0 0 1-7.914 6.443l6.72-5.462a363.968 363.968 0 0 1-24.086 18.347 362.325 362.325 0 0 1-33.685 20.885 395.355 395.355 0 0 1-17.728 9.067l1.685-.81a360.619 360.619 0 0 1-18.645 8.362l6.848-2.944c-2.475 1.11-4.97 2.155-7.467 3.2l.598-.256a321.278 321.278 0 0 1-9.6 3.84l9.002-3.584a315.468 315.468 0 0 1-10.026 3.947l1.045-.384a348.55 348.55 0 0 1-8.981 3.285l7.957-2.901a325.748 325.748 0 0 1-9.045 3.285l1.066-.384a362.453 362.453 0 0 1-128.128 20.373l-6.165-.17a361.344 361.344 0 0 1-111.723-22.123l4.118 1.493c-2.56-.896-5.12-1.834-7.659-2.794l3.541 1.301a367.701 367.701 0 0 1-19.093-7.68l8 3.392a360.555 360.555 0 0 1-9.067-3.84l1.067.448a360.704 360.704 0 0 1-7.488-3.35l6.4 2.902a488.108 488.108 0 0 1-8.277-3.776l1.877.853c-2.987-1.365-5.973-2.816-8.96-4.266l7.083 3.413a361.813 361.813 0 0 1-32.918-17.6v-.021a363.008 363.008 0 0 1-29.61-19.904l4.629 3.413a410.991 410.991 0 0 1-6.123-4.523l1.494 1.11a364.16 364.16 0 0 1-7.382-5.654l5.888 4.544a364.224 364.224 0 0 1-6.826-5.29l.938.746a387.452 387.452 0 0 1-7.338-5.93l6.4 5.184a364.843 364.843 0 0 1-21.803-18.71l1.472 1.366a468.326 468.326 0 0 1-5.845-5.483l4.373 4.117a334.598 334.598 0 0 1-6.293-5.973v-.021a356.693 356.693 0 0 1-13.163-13.483l-5.248-5.803-.299-.341a363.733 363.733 0 0 1-62.869-100.139l2.517 5.867a357.035 357.035 0 0 1-10.133-25.685l1.13 3.2a420.096 420.096 0 0 1-4.138-12.096 360.683 360.683 0 0 1-13.163-55.766 362.816 362.816 0 0 1-2.474-19.669l.426 3.925c-.341-2.88-.618-5.76-.853-8.682l.427 4.757a367.68 367.68 0 0 1-.427-66.923l-.213 2.539c.213-2.88.49-5.76.768-8.619l-.555 6.08a362.603 362.603 0 0 1 3.52-28.202 359.936 359.936 0 0 1 16.747-64.214 343.488 343.488 0 0 1 6.506-16.725l-.64 1.6a360.747 360.747 0 0 1 20.992-42.56l4.31-7.296a364.203 364.203 0 0 1 38.122-51.627l.278-.341 5.077-5.61a364.907 364.907 0 0 1 15.787-16.043l-2.176 2.069 4.906-4.672c2.731-2.56 5.504-5.077 8.32-7.552l-2.133 1.899 3.925-3.478-1.792 1.579a404.183 404.183 0 0 1 7.296-6.272l-5.504 4.693c2.134-1.834 4.267-3.669 6.443-5.461l-.939.768a360.544 360.544 0 0 1 14.507-11.477l-4.117 3.136a366.25 366.25 0 0 1 12.629-9.344h-.021a364.267 364.267 0 0 1 22.186-14.507l-6.421 3.968a362.581 362.581 0 0 1 23.787-13.803l-.811.427a318.945 318.945 0 0 1 6.528-3.413l-5.717 2.986a395.123 395.123 0 0 1 8.96-4.608l-3.243 1.622a350.292 350.292 0 0 1 9.856-4.822l-6.613 3.2a300.091 300.091 0 0 1 8.789-4.202l-2.176 1.002a302.21 302.21 0 0 1 7.552-3.434L360 182.635a309.605 309.605 0 0 1 7.659-3.435l-2.283 1.003c6.08-2.71 12.267-5.227 18.517-7.595l-7.829 3.05a359.808 359.808 0 0 1 25.13-9.087A362.453 362.453 0 0 1 512 149.333zM369.067 667.52l-3.478 1.365a383.275 383.275 0 0 0-76.224 42.198 298.368 298.368 0 0 0 160.299 93.077 448.064 448.064 0 0 1-80.597-136.64zm285.888-.021l-.32.832a447.701 447.701 0 0 1-80.32 135.829 298.368 298.368 0 0 0 160.32-93.056 382.421 382.421 0 0 0-79.68-43.605zM512 640c-28.01 0-55.317 2.987-81.621 8.683A383.957 383.957 0 0 0 512 777.6a384.299 384.299 0 0 0 81.621-128.896A384.533 384.533 0 0 0 512 640zM252.01 364.885l-2.986 5.44A297.344 297.344 0 0 0 213.334 512c0 53.483 14.08 103.68 38.677 147.115a446.528 446.528 0 0 1 99.157-53.376A448.512 448.512 0 0 1 341.333 512c0-32.15 3.392-63.53 9.814-93.76a445.867 445.867 0 0 1-99.136-53.355zm519.98 0l-4.48 3.158a446.827 446.827 0 0 1-94.678 50.218A450.62 450.62 0 0 1 682.667 512c0 32.15-3.392 63.53-9.814 93.76a445.867 445.867 0 0 1 99.136 53.355A297.365 297.365 0 0 0 810.667 512c0-53.483-14.08-103.68-38.678-147.115zm-160.64 72.043l-4.651 1.045C576.192 444.544 544.49 448 512 448c-34.133 0-67.392-3.819-99.35-11.05a386.432 386.432 0 0 0-7.317 75.05c0 25.685 2.518 50.773 7.339 75.072A448.79 448.79 0 0 1 512 576c34.133 0 67.392 3.819 99.35 11.05 4.8-24.255 7.317-49.365 7.317-75.05 0-25.685-2.518-50.773-7.339-75.072zM512 246.4l-3.307 3.499A384.107 384.107 0 0 0 430.4 375.296C456.683 380.992 483.99 384 512 384c28.01 0 55.317-2.987 81.621-8.683A383.957 383.957 0 0 0 512 246.4zm-62.293-26.56l-2.624.576a298.432 298.432 0 0 0-157.718 92.48 382.421 382.421 0 0 0 79.68 43.605 447.915 447.915 0 0 1 80.64-136.661zm124.629 0l2.987 3.52a447.573 447.573 0 0 1 77.61 133.12 381.845 381.845 0 0 0 79.702-43.563 298.368 298.368 0 0 0-160.299-93.077z"/></svg>