<svg  xmlns="http://www.w3.org/2000/svg" viewBox="0 0 1024 1024"><path  d="M581.675 170.667c6.72 0 18.538 1.429 27.584 4.352 44.544 14.442 70.186 61.76 59.797 109.12l-1.067 4.437-39.701 148.907h157.27c19.093 0 37.973 7.082 50.773 21.248 14.293 15.829 19.861 36.778 15.616 57.109l-1.067 4.352-82.923 295.253a51.883 51.883 0 0 1-46.08 37.76l-3.84.128h-419.37V452.501c84.949-18.389 209.194-244.373 209.194-244.373 17.664-23.957 39.083-37.461 73.814-37.461zM234.667 448v405.333h-64V448h64zm347.008-213.333c-9.6 0-13.547 1.109-18.454 6.613l-1.706 2.005-8.064 14.08-8.64 14.614a1342.848 1342.848 0 0 1-63.19 96.426c-24.512 33.92-48.597 63.147-72.234 86.464-15.723 15.51-31.147 28.438-46.72 38.464v296H708.82l80.512-286.848c0-.277-.128-.448-.49-.853.298.341-.854-.15-3.286-.15H544.981l61.163-229.44c4.395-16.426-3.627-31.935-16.597-36.138a46.016 46.016 0 0 0-7.894-1.237z"/></svg>