<svg  xmlns="http://www.w3.org/2000/svg" viewBox="0 0 1024 1024"><path  d="M512 149.333c200.299 0 362.667 162.368 362.667 362.667S712.299 874.667 512 874.667 149.333 712.299 149.333 512 311.701 149.333 512 149.333zM551.659 640H491.69v64h59.968v-64zm-3.542-316.757c-38.741-7.851-80.704-2.731-110.485 29.162-26.581 28.544-32.299 51.136-32.299 100.971h59.734v-14.507c.277-25.578 4.586-51.946 41.962-59.306a60.373 60.373 0 0 1 52.822 13.568c13.312 12.821 13.61 41.856-7.894 56.32l-33.664 22.4-3.776 2.496c-16.789 11.669-22.826 24.832-22.826 43.648v79.338h59.968V539.82l.106-2.816c.854-11.307 6.998-21.91 21.526-31.19 15.722-10.048 59.605-30.378 59.605-84.117 0-53.717-46.059-90.645-84.779-98.453z"/></svg>