<svg  xmlns="http://www.w3.org/2000/svg" viewBox="0 0 1024 1024"><path  d="M512 128c164.95 0 298.667 129.941 298.667 290.261 0 3.392-.064 6.784-.214 10.24-3.669 95.915-58.24 203.776-147.797 313.174a1260.715 1260.715 0 0 1-139.819 144.768L512 895.765l-10.837-9.322-13.014-11.627a1260.715 1260.715 0 0 1-126.805-133.163C271.787 632.277 217.216 524.416 213.525 428.48a273.235 273.235 0 0 1-.192-10.24c0-158.08 130.07-286.677 291.904-290.176L512 128zm0 138.667a149.333 149.333 0 1 0 0 298.666 149.333 149.333 0 0 0 0-298.666zm0 64a85.333 85.333 0 1 1 0 170.666 85.333 85.333 0 0 1 0-170.666z"/></svg>