<svg  xmlns="http://www.w3.org/2000/svg" viewBox="0 0 1024 1024"><path  d="M512 149.333c200.299 0 362.667 162.368 362.667 362.667S712.299 874.667 512 874.667 149.333 712.299 149.333 512 311.701 149.333 512 149.333zm0 64c-164.95 0-298.667 133.718-298.667 298.667S347.051 810.667 512 810.667 810.667 676.949 810.667 512 676.949 213.333 512 213.333zm64 471.19a64 64 0 0 1-127.893 3.754l-.107-3.754h128zm-64-407.19c75.179 0 138.624 49.387 138.624 114.155v159.104l45.61 59.35c17.793 20.18 3.051 51.391-24.277 51.391H352.043c-27.307 0-42.07-31.21-24.278-51.413l45.611-59.307V391.467c0-64.747 63.445-114.134 138.624-114.134zm0 64c-43.67 0-74.624 25.046-74.624 50.155v180.864l-19.2 24.981h187.648l-19.2-24.981V391.488c0-25.11-30.933-50.155-74.624-50.155z"/></svg>