<svg  xmlns="http://www.w3.org/2000/svg" viewBox="0 0 1024 1024"><defs/><path d="M845.292 920.615v41.354c0 5.416-1.969 10.339-5.907 13.785-3.939 3.938-8.862 5.908-13.785 5.908l-694.646 2.953c-10.83 0-19.692-8.861-19.692-19.692l-2.954-757.661c0-10.831 8.861-19.693 19.692-19.693h46.277v18.216c0 32.492 26.585 59.569 59.57 59.569h486.4c32.491 0 59.568-26.585 59.568-59.57v-20.676h43.323c5.416 0 10.339 1.969 13.785 5.907 3.939 3.939 5.908 8.862 5.908 13.785l.492 187.57c21.662 0 39.385-17.724 39.385-39.385l-.493-148.185c0-15.754-6.4-30.523-17.723-41.846s-26.092-17.23-41.354-17.23h-43.323v-15.262c0-32.493-26.584-59.57-59.569-59.57h-51.2V59.57C669.046 27.077 642.462 0 609.476 0H344.124c-32.492 0-59.077 26.585-59.077 59.57V70.4h-51.2c-32.492 0-59.57 26.585-59.57 59.57v17.722h-46.768c-32.493 0-59.077 26.585-58.585 59.57l2.954 758.153c0 32.493 26.585 58.585 59.077 58.585h.492l694.646-2.954c15.754 0 30.523-6.4 41.846-17.723s17.231-26.092 17.231-41.846v-1.97c-.492-21.169-18.215-38.892-39.877-38.892zm-631.63-791.138c0-10.83 8.861-20.185 20.184-20.185h70.892c10.831 0 19.693-8.861 19.693-19.692V59.57c0-10.832 8.861-20.185 20.184-20.185H609.97c10.831 0 20.185 8.861 20.185 20.184v30.523c0 10.831 8.861 19.693 19.692 19.693h70.892c10.831 0 20.185 8.861 20.185 20.184v75.323c0 10.831-8.861 20.185-20.185 20.185H233.846c-10.83 0-20.184-8.862-20.184-20.185v-75.815z"/><path d="M298.83 435.2l291.447-.985c10.338 0 18.708-8.861 18.708-19.2 0-10.338-8.862-18.707-19.2-18.707l-291.447.984c-10.338 0-18.707 8.862-18.707 19.2.492 10.339 8.861 19.2 19.2 18.708zm310.647 149.17c0-10.34-8.862-18.708-19.2-18.708l-291.446.984c-10.339 0-18.708 8.862-18.708 19.2 0 10.339 8.862 18.708 19.2 18.708l291.446-.985c10.339-.492 18.708-8.861 18.708-19.2zM299.323 734.522c-10.83 0-19.2 8.862-19.2 19.2 0 10.83 8.862 19.2 19.2 19.2l179.2-.492c10.83 0 19.2-8.862 19.2-19.2 0-10.831-8.861-19.2-19.2-19.2l-179.2.492zm646.4-192.492l-22.646-22.646c-3.939-4.431-9.354-6.4-15.262-6.4s-11.323 2.461-15.261 6.4l-18.216 17.723c-4.43 4.43-4.43 11.323 0 16.246l45.785 45.784c4.43 4.431 11.323 4.431 16.246 0l9.846-9.846c12.308-13.292 12.308-33.969-.492-47.261zm-92.061 31.507c-4.431-4.43-11.324-4.43-15.754 0L640 771.446c-1.477 1.477-1.97 2.462-2.462 4.43l-21.169 66.462c-2.461 8.862 5.416 17.231 13.785 13.785l66.461-21.17c1.97-.491 3.447-1.476 4.923-2.46l197.908-197.908c4.43-4.431 4.43-11.323 0-16.247l-45.784-44.8z"/></svg>