<svg  xmlns="http://www.w3.org/2000/svg" viewBox="0 0 1024 1024"><defs/><path d="M141.42 344.172c105.683 43.453 264.604 108.262 271.504 111.076 13.434 5.691 28.358 28.936 28.367 53.323v375.563c0 8.74-5.982 13.393-10.301 13.393-.977 0-1.984-.22-3.077-.672-109.946-45.43-258.418-108.077-259.904-108.705l-.097-.041-.098-.04c-14.307-5.96-26.395-30.383-26.395-53.333V344.172M96.6 277.185v457.552c0 35.88 18.563 79.955 53.983 94.708 0 0 148.834 62.811 260.215 108.834 6.718 2.776 13.542 4.069 20.193 4.069 29.182 0 55.122-24.846 55.122-58.215V508.57c-.016-40.694-24.116-81.426-56.051-94.74 0 .002-244.979-99.887-333.462-136.645zm782.654 66.987v390.564c0 22.95-12.088 47.373-26.395 53.333l-.098.04-.096.041c-1.487.628-149.957 63.274-259.905 108.705-1.093.452-2.099.672-3.076.672-4.319 0-10.3-4.655-10.3-13.393V508.587c.01-24.403 14.933-47.649 28.366-53.34 6.9-2.813 165.821-67.623 271.504-111.075m44.821-66.987c-88.483 36.758-333.461 136.647-333.461 136.647-31.936 13.313-56.037 54.045-56.052 94.74v375.562c0 33.367 25.943 58.215 55.122 58.215 6.654 0 13.473-1.292 20.194-4.069 111.38-46.024 260.215-108.834 260.215-108.834 35.42-14.752 53.983-58.828 53.983-94.708V277.185h-.001zm-413.737-151.39c17.855 0 35.335 2.734 46.761 7.312l246.459 98.743-246.459 98.742c-11.427 4.578-28.908 7.311-46.76 7.311s-35.335-2.733-46.762-7.31l-246.46-98.743 246.459-98.743c11.427-4.578 28.908-7.311 46.762-7.311m0-44.821c-22.958 0-45.914 3.509-63.43 10.526L96.599 231.85l350.306 140.348c17.517 7.019 40.474 10.528 63.431 10.528 22.958 0 45.915-3.51 63.43-10.528L924.074 231.85 573.768 91.5c-17.516-7.017-40.474-10.525-63.43-10.525z"/></svg>