<svg  xmlns="http://www.w3.org/2000/svg" viewBox="0 0 1024 1024"><defs/><path d="M895.947 734.048l1.066 1.013a29.824 29.824 0 0 1 0 43.414l-162.261 152.96a31.925 31.925 0 0 1-22.763 8.704 31.925 31.925 0 0 1-22.773-8.704l-93.184-87.84a29.824 29.824 0 0 1 0-43.414l1.077-1.013a32 32 0 0 1 43.904 0l70.976 66.901 140.054-132.021a32 32 0 0 1 43.904 0zM768 85.333c64.8 0 117.333 52.534 117.333 117.334v394.666a32 32 0 0 1-64 0V202.667A53.333 53.333 0 0 0 768 149.333H256a53.333 53.333 0 0 0-53.333 53.334v618.666A53.333 53.333 0 0 0 256 874.667h234.667a32 32 0 0 1 0 64H256c-64.8 0-117.333-52.534-117.333-117.334V202.667c0-64.8 52.533-117.334 117.333-117.334zM554.667 544a32 32 0 0 1 0 64H341.333a32 32 0 0 1 0-64zm128-170.667a32 32 0 0 1 0 64H341.333a32 32 0 0 1 0-64z"/></svg>