<svg  xmlns="http://www.w3.org/2000/svg" viewBox="0 0 1024 1024"><path  d="M896 576c0 17.632-14.336 32-32 32h-64V416h64c17.664 0 32 14.368 32 32v128zM448 768c0-35.296 28.704-64 64-64s64 28.704 64 64-28.704 64-64 64-64-28.704-64-64zM224 608h-64c-17.664 0-32-14.368-32-32V448c0-17.632 14.336-32 32-32h64v192zm640-256h-65.888C782.176 208 660.224 96 512 96c-148.224 0-270.176 112-286.112 256H160c-52.928 0-96 43.072-96 96v128c0 52.928 43.072 96 96 96h128V384c0-123.52 100.512-224 224-224s224 100.48 224 224v224a223.872 223.872 0 0 1-98.56 185.472A128.128 128.128 0 0 0 512 640c-70.592 0-128 57.408-128 128s57.408 128 128 128c137.024 0 251.456-95.776 280.64-224H864c52.928 0 96-43.072 96-96V448c0-52.928-43.072-96-96-96z"/></svg>