<svg  xmlns="http://www.w3.org/2000/svg" viewBox="0 0 1026 1024"><defs/><path  d="M971.5 107.548A114.093 114.093 0 0 0 855.696.016H169.143A114.093 114.093 0 0 0 55.05 107.834L0 498.887a109.53 109.53 0 0 0 59.328 96.123v305.198a124.646 124.646 0 0 0 125.217 123.79h656.033c85.57 0 125.217-53.623 125.217-123.79V596.15a109.814 109.814 0 0 0 61.04-97.264zm-69.597 792.66a55.05 55.05 0 0 1-60.47 59.043H185.402a59.899 59.899 0 0 1-60.47-59.043V609.27h776.972zm10.84-355.684h-798.65a48.49 48.49 0 0 1-50.201-43.64l54.194-390.769a51.057 51.057 0 0 1 51.057-45.35h686.553a49.916 49.916 0 0 1 50.486 45.35l57.046 390.768a48.49 48.49 0 0 1-50.486 43.64z"/><path  d="M804.069 287.53h-596.42a35.084 35.084 0 0 0 0 70.452h596.42a35.084 35.084 0 1 0 0-70.452z"/></svg>